<svg width="64" height="64" viewBox="0 0 64 64" fill="none" xmlns="http://www.w3.org/2000/svg">
<path fill-rule="evenodd" clip-rule="evenodd" d="M6.74362 20.4467L11.744 21.4395C7.00406 19.9765 4.03506 15.065 4.97264 10.049L5.1289 9.36981L31.3811 14.647C38.4651 16.11 43.778 22.3277 43.778 29.8517C43.778 38.3684 36.9024 45.3176 28.36 45.3176C20.0781 45.3176 13.3067 38.7864 12.9421 30.5309C8.56669 29.6427 5.75395 25.4105 6.63944 21.0215L6.74362 20.4467ZM32.3705 25.4093C32.9435 24.8346 33.8811 24.8346 34.4541 25.4093C35.027 25.984 35.027 26.9246 34.3499 27.3948L27.4222 34.2395C27.1097 34.5008 26.7451 34.6576 26.3804 34.6576C26.0158 34.6576 25.6512 34.5008 25.3387 34.2395L22.0572 31C21.4842 30.4253 21.4842 29.4848 22.0572 28.9101C22.6301 28.3353 23.5677 28.3353 24.1407 28.9101L26.4325 31.1568L32.3705 25.4093Z" fill="#19B885"/>
<path d="M51.2783 15.2739C53.9869 19.5062 55.4974 24.5222 55.4974 29.9038C55.4974 39.7791 50.2365 48.4003 42.4234 53.2072C42.2671 53.3117 42.0587 53.4162 41.8504 53.5208C41.1212 53.9387 40.3398 54.3567 39.5586 54.7225C38.3605 55.2973 37.0583 55.7675 35.7561 56.1332C35.5478 56.1855 35.3394 56.2377 35.1311 56.29C34.7144 56.3945 34.2456 56.499 33.8289 56.6035C33.7247 56.6035 33.6206 56.6557 33.5164 56.6557C33.2038 56.7079 32.8392 56.7602 32.5267 56.8125C31.1724 57.0215 29.8182 57.126 28.4118 57.126C28.1513 57.126 27.943 57.126 27.6825 57.126C27.2658 57.126 26.9012 57.126 26.4845 57.0737C26.3282 57.0737 26.172 57.0737 26.0157 57.0215C25.8074 57.0215 25.599 56.9693 25.4427 56.9693C24.7656 56.917 24.0885 56.8125 23.4114 56.6557C23.2551 56.6557 23.0988 56.6035 22.9426 56.5512C22.6821 56.499 22.4217 56.4467 22.1612 56.3945C21.9529 56.3423 21.7445 56.29 21.5883 56.2377C21.3799 56.1854 21.2236 56.1332 21.0153 56.081C20.4423 55.9242 19.8694 55.7152 19.2964 55.5062L12.2646 62.56C10.4415 61.6717 8.72259 60.6267 7.05579 59.425L13.723 52.7892L18.0463 48.4525V48.5048C21.1195 50.229 24.6614 51.2217 28.4118 51.2217C40.1836 51.2217 49.7678 41.6078 49.7678 29.7993V28.7021C49.7678 26.3509 49.0906 23.9997 48.4656 22.3277C47.7884 20.6034 47.1113 19.5062 47.1113 19.5062C47.1113 19.5062 49.7678 16.8414 51.2783 15.2739Z" fill="#19B885"/>
<path d="M56.1231 10.4668L51.331 15.2738C51.0185 10.8848 47.3723 7.43633 42.8928 7.43633C40.8614 7.43633 38.9862 8.16782 37.5278 9.3696L37.4757 9.42182C37.3194 9.57855 37.1111 9.73529 36.9548 9.89209C35.0275 9.05606 32.944 8.48134 30.7563 8.27232C31.9023 6.44359 33.4649 4.87609 35.288 3.7266C35.3921 3.67435 35.4442 3.67435 35.4963 3.6221C37.3714 2.4726 39.5592 1.79336 41.9031 1.63661C47.0077 1.27086 51.6435 3.67435 54.4562 7.48858H59.04L56.1231 10.4668Z" fill="#19B885"/>
</svg>
